<svg width="109" height="109" viewBox="0 0 109 109" fill="none" xmlns="http://www.w3.org/2000/svg">
<g clip-path="url(#clip0_118_64)">
<rect width="109" height="109" rx="54.5" fill="url(#paint0_linear_118_64)"/>
<path d="M72.3694 46.5386C98.326 25.2746 73.8282 5.82507 47.5105 16.1838C44.6952 17.2921 36.8936 12.8555 29.6669 17.5295C25.0051 20.5446 26.8194 22.9075 25.0042 25.2704C23.189 27.6333 16.1908 27.4943 14.6578 33.6299C13.7498 37.2649 16.2624 41.0725 15.9264 43.8085C15.5903 46.5445 12.9371 49.0107 12.8105 52.6227C12.7558 54.1482 13.002 55.6696 13.5353 57.0999C14.0686 58.5303 14.8784 59.8415 15.9186 60.9588C16.9587 62.0762 18.2088 62.9776 19.5974 63.6117C20.9859 64.2458 22.4858 64.6002 24.0114 64.6546C24.0239 67.6704 25.2015 70.5648 27.2981 72.7327C29.3947 74.9007 32.248 76.1744 35.2618 76.2877C37.2651 76.3579 42.3372 76.3586 46.6958 73.7294C57.6176 67.1428 55.167 60.6303 72.3694 46.5386Z" fill="white"/>
<path d="M45.4167 70.4867C45.4167 67.2167 45.3055 51.0876 45.311 50.8151C36.3334 52.1383 36.515 35.0617 45.5984 39.24C47.5967 40.5117 53.2284 39.24 52.6834 28.7033C62.4934 39.24 73.8828 26.9506 74.8594 36.9648C76.1932 50.6389 74.8514 64.9491 66.3534 64.9502C65.4238 64.9389 64.4969 64.8463 63.5834 64.6733V70.4867C63.5834 74.12 70.1234 75.9367 70.1234 75.9367C70.1234 75.9367 58.8266 86.5823 54.1367 86.5235C49.4468 86.4646 38.8767 75.9367 38.8767 75.9367C38.8767 75.9367 45.4167 74.12 45.4167 70.4867Z" fill="url(#paint1_linear_118_64)"/>
<path d="M63.5833 64.6715C59.0758 63.6718 54.8045 61.8089 51.0051 59.1855C51.0051 59.1855 54.14 66.8493 63.5717 68.3034L63.5833 64.6715Z" fill="#DB6F3D"/>
<path d="M87.9267 86.8367C90.5626 92.6943 91.9233 110.453 91.9233 110.453H17.0767C17.0767 110.453 18.4373 92.6943 21.0733 86.8367C23.3827 81.7053 38.6002 75.8135 43.0597 74.12C45.6347 77.0005 49.3247 78.8433 54.5 78.8433C59.6753 78.8433 63.3653 77.0005 65.9403 74.12C70.3998 75.8135 85.6173 81.7053 87.9267 86.8367Z" fill="url(#paint2_linear_118_64)"/>
<mask id="mask0_118_64" style="mask-type:alpha" maskUnits="userSpaceOnUse" x="17" y="74" width="75" height="37">
<path d="M87.9267 86.8367C90.5626 92.6943 91.9233 110.453 91.9233 110.453H17.0767C17.0767 110.453 18.4373 92.6943 21.0733 86.8367C23.3827 81.7053 38.6002 75.8135 43.0597 74.12C45.6347 77.0005 49.3247 78.8433 54.5 78.8433C59.6753 78.8433 63.3653 77.0005 65.9403 74.12C70.3998 75.8135 85.6173 81.7053 87.9267 86.8367Z" fill="url(#paint3_linear_118_64)"/>
</mask>
<g mask="url(#mask0_118_64)">
<path d="M88.6532 106.82C88.6532 106.389 88.7811 105.967 89.0206 105.609C89.2602 105.25 89.6007 104.971 89.999 104.806C90.3973 104.641 90.8357 104.598 91.2585 104.682C91.6814 104.766 92.0699 104.974 92.3747 105.278C92.6796 105.583 92.8872 105.972 92.9714 106.395C93.0555 106.818 93.0123 107.256 92.8473 107.654C92.6823 108.053 92.4029 108.393 92.0444 108.633C91.6859 108.872 91.2644 109 90.8332 109C90.2551 109 89.7006 108.77 89.2918 108.361C88.8829 107.953 88.6532 107.398 88.6532 106.82V106.82ZM74.1199 106.82C74.1199 106.389 74.2478 105.967 74.4873 105.609C74.7269 105.25 75.0673 104.971 75.4657 104.806C75.864 104.641 76.3023 104.598 76.7252 104.682C77.1481 104.766 77.5365 104.974 77.8414 105.278C78.1463 105.583 78.3539 105.972 78.438 106.395C78.5221 106.818 78.479 107.256 78.314 107.654C78.149 108.053 77.8696 108.393 77.5111 108.633C77.1526 108.872 76.7311 109 76.2999 109C75.7217 109 75.1672 108.77 74.7584 108.361C74.3496 107.953 74.1199 107.398 74.1199 106.82ZM59.5866 106.82C59.5866 106.389 59.7144 105.967 59.954 105.609C60.1935 105.25 60.534 104.971 60.9323 104.806C61.3307 104.641 61.769 104.598 62.1919 104.682C62.6148 104.766 63.0032 104.974 63.3081 105.278C63.613 105.583 63.8206 105.972 63.9047 106.395C63.9888 106.818 63.9456 107.256 63.7806 107.654C63.6156 108.053 63.3362 108.393 62.9777 108.633C62.6192 108.872 62.1977 109 61.7666 109C61.1884 109 60.6339 108.77 60.2251 108.361C59.8163 107.953 59.5866 107.398 59.5866 106.82ZM45.0532 106.82C45.0532 106.389 45.1811 105.967 45.4206 105.609C45.6602 105.25 46.0007 104.971 46.399 104.806C46.7973 104.641 47.2357 104.598 47.6585 104.682C48.0814 104.766 48.4699 104.974 48.7747 105.278C49.0796 105.583 49.2872 105.972 49.3714 106.395C49.4555 106.818 49.4123 107.256 49.2473 107.654C49.0823 108.053 48.8029 108.393 48.4444 108.633C48.0859 108.872 47.6644 109 47.2332 109C46.6551 109 46.1006 108.77 45.6918 108.361C45.2829 107.953 45.0532 107.398 45.0532 106.82ZM30.5199 106.82C30.5199 106.389 30.6478 105.967 30.8873 105.609C31.1268 105.25 31.4673 104.971 31.8657 104.806C32.264 104.641 32.7023 104.598 33.1252 104.682C33.5481 104.766 33.9365 104.974 34.2414 105.278C34.5463 105.583 34.7539 105.972 34.838 106.395C34.9221 106.818 34.879 107.256 34.714 107.654C34.549 108.053 34.2695 108.393 33.9111 108.633C33.5526 108.872 33.1311 109 32.6999 109C32.1217 109 31.5672 108.77 31.1584 108.361C30.7496 107.953 30.5199 107.398 30.5199 106.82ZM15.9866 106.82C15.9866 106.389 16.1144 105.967 16.354 105.609C16.5935 105.25 16.934 104.971 17.3323 104.806C17.7307 104.641 18.169 104.598 18.5919 104.682C19.0147 104.766 19.4032 104.974 19.7081 105.278C20.0129 105.583 20.2206 105.972 20.3047 106.395C20.3888 106.818 20.3456 107.256 20.1806 107.654C20.0156 108.053 19.7362 108.393 19.3777 108.633C19.0192 108.872 18.5977 109 18.1666 109C17.5884 109 17.0339 108.77 16.6251 108.361C16.2163 107.953 15.9866 107.398 15.9866 106.82V106.82ZM81.3866 99.5533C81.3866 99.1222 81.5144 98.7007 81.754 98.3422C81.9935 97.9837 82.334 97.7043 82.7323 97.5393C83.1307 97.3743 83.569 97.3311 83.9919 97.4152C84.4148 97.4993 84.8032 97.707 85.1081 98.0118C85.413 98.3167 85.6206 98.7051 85.7047 99.128C85.7888 99.5509 85.7456 99.9892 85.5806 100.388C85.4156 100.786 85.1362 101.126 84.7777 101.366C84.4192 101.605 83.9977 101.733 83.5666 101.733C82.9884 101.733 82.4339 101.504 82.0251 101.095C81.6163 100.686 81.3866 100.131 81.3866 99.5533ZM66.8532 99.5533C66.8532 99.1222 66.9811 98.7007 67.2206 98.3422C67.4602 97.9837 67.8007 97.7043 68.199 97.5393C68.5973 97.3743 69.0357 97.3311 69.4585 97.4152C69.8814 97.4993 70.2699 97.707 70.5747 98.0118C70.8796 98.3167 71.0872 98.7051 71.1714 99.128C71.2555 99.5509 71.2123 99.9892 71.0473 100.388C70.8823 100.786 70.6029 101.126 70.2444 101.366C69.8859 101.605 69.4644 101.733 69.0332 101.733C68.4551 101.733 67.9006 101.504 67.4918 101.095C67.0829 100.686 66.8532 100.131 66.8532 99.5533ZM52.3199 99.5533C52.3199 99.1222 52.4478 98.7007 52.6873 98.3422C52.9268 97.9837 53.2673 97.7043 53.6657 97.5393C54.064 97.3743 54.5023 97.3311 54.9252 97.4152C55.3481 97.4993 55.7365 97.707 56.0414 98.0118C56.3463 98.3167 56.5539 98.7051 56.638 99.128C56.7221 99.5509 56.679 99.9892 56.514 100.388C56.349 100.786 56.0696 101.126 55.7111 101.366C55.3526 101.605 54.9311 101.733 54.4999 101.733C53.9217 101.733 53.3672 101.504 52.9584 101.095C52.5496 100.686 52.3199 100.131 52.3199 99.5533V99.5533ZM37.7866 99.5533C37.7866 99.1222 37.9144 98.7007 38.154 98.3422C38.3935 97.9837 38.734 97.7043 39.1323 97.5393C39.5307 97.3743 39.969 97.3311 40.3919 97.4152C40.8147 97.4993 41.2032 97.707 41.5081 98.0118C41.8129 98.3167 42.0206 98.7051 42.1047 99.128C42.1888 99.5509 42.1456 99.9892 41.9806 100.388C41.8156 100.786 41.5362 101.126 41.1777 101.366C40.8192 101.605 40.3977 101.733 39.9666 101.733C39.3884 101.733 38.8339 101.504 38.4251 101.095C38.0163 100.686 37.7866 100.131 37.7866 99.5533ZM23.2532 99.5533C23.2532 99.1222 23.3811 98.7007 23.6206 98.3422C23.8602 97.9837 24.2006 97.7043 24.599 97.5393C24.9973 97.3743 25.4357 97.3311 25.8585 97.4152C26.2814 97.4993 26.6699 97.707 26.9747 98.0118C27.2796 98.3167 27.4872 98.7051 27.5714 99.128C27.6555 99.5509 27.6123 99.9892 27.4473 100.388C27.2823 100.786 27.0029 101.126 26.6444 101.366C26.2859 101.605 25.8644 101.733 25.4332 101.733C24.8551 101.733 24.3006 101.504 23.8917 101.095C23.4829 100.686 23.2532 100.131 23.2532 99.5533ZM88.6532 92.2867C88.6532 91.8555 88.7811 91.434 89.0206 91.0755C89.2602 90.717 89.6007 90.4376 89.999 90.2726C90.3973 90.1076 90.8357 90.0644 91.2585 90.1485C91.6814 90.2327 92.0699 90.4403 92.3747 90.7452C92.6796 91.05 92.8872 91.4385 92.9714 91.8614C93.0555 92.2842 93.0123 92.7226 92.8473 93.1209C92.6823 93.5193 92.4029 93.8597 92.0444 94.0993C91.6859 94.3388 91.2644 94.4667 90.8332 94.4667C90.2551 94.4667 89.7006 94.237 89.2918 93.8282C88.8829 93.4193 88.6532 92.8648 88.6532 92.2867V92.2867ZM74.1199 92.2867C74.1199 91.8555 74.2478 91.434 74.4873 91.0755C74.7269 90.717 75.0673 90.4376 75.4657 90.2726C75.864 90.1076 76.3023 90.0644 76.7252 90.1485C77.1481 90.2327 77.5365 90.4403 77.8414 90.7452C78.1463 91.05 78.3539 91.4385 78.438 91.8614C78.5221 92.2842 78.479 92.7226 78.314 93.1209C78.149 93.5193 77.8696 93.8597 77.5111 94.0993C77.1526 94.3388 76.7311 94.4667 76.2999 94.4667C75.7217 94.4667 75.1672 94.237 74.7584 93.8282C74.3496 93.4193 74.1199 92.8648 74.1199 92.2867ZM59.5866 92.2867C59.5866 91.8555 59.7144 91.434 59.954 91.0755C60.1935 90.717 60.534 90.4376 60.9323 90.2726C61.3307 90.1076 61.769 90.0644 62.1919 90.1485C62.6148 90.2327 63.0032 90.4403 63.3081 90.7452C63.613 91.05 63.8206 91.4385 63.9047 91.8614C63.9888 92.2842 63.9456 92.7226 63.7806 93.1209C63.6156 93.5193 63.3362 93.8597 62.9777 94.0993C62.6192 94.3388 62.1977 94.4667 61.7666 94.4667C61.1884 94.4667 60.6339 94.237 60.2251 93.8282C59.8163 93.4193 59.5866 92.8648 59.5866 92.2867ZM45.0532 92.2867C45.0532 91.8555 45.1811 91.434 45.4206 91.0755C45.6602 90.717 46.0007 90.4376 46.399 90.2726C46.7973 90.1076 47.2357 90.0644 47.6585 90.1485C48.0814 90.2327 48.4699 90.4403 48.7747 90.7452C49.0796 91.05 49.2872 91.4385 49.3714 91.8614C49.4555 92.2842 49.4123 92.7226 49.2473 93.1209C49.0823 93.5193 48.8029 93.8597 48.4444 94.0993C48.0859 94.3388 47.6644 94.4667 47.2332 94.4667C46.6551 94.4667 46.1006 94.237 45.6918 93.8282C45.2829 93.4193 45.0532 92.8648 45.0532 92.2867ZM30.5199 92.2867C30.5199 91.8555 30.6478 91.434 30.8873 91.0755C31.1268 90.717 31.4673 90.4376 31.8657 90.2726C32.264 90.1076 32.7023 90.0644 33.1252 90.1485C33.5481 90.2327 33.9365 90.4403 34.2414 90.7452C34.5463 91.05 34.7539 91.4385 34.838 91.8614C34.9221 92.2842 34.879 92.7226 34.714 93.1209C34.549 93.5193 34.2695 93.8597 33.9111 94.0993C33.5526 94.3388 33.1311 94.4667 32.6999 94.4667C32.1217 94.4667 31.5672 94.237 31.1584 93.8282C30.7496 93.4193 30.5199 92.8648 30.5199 92.2867ZM15.9866 92.2867C15.9866 91.8555 16.1144 91.434 16.354 91.0755C16.5935 90.717 16.934 90.4376 17.3323 90.2726C17.7307 90.1076 18.169 90.0644 18.5919 90.1485C19.0147 90.2327 19.4032 90.4403 19.7081 90.7452C20.0129 91.05 20.2206 91.4385 20.3047 91.8614C20.3888 92.2842 20.3456 92.7226 20.1806 93.1209C20.0156 93.5193 19.7362 93.8597 19.3777 94.0993C19.0192 94.3388 18.5977 94.4667 18.1666 94.4667C17.5884 94.4667 17.0339 94.237 16.6251 93.8282C16.2163 93.4193 15.9866 92.8648 15.9866 92.2867V92.2867ZM81.3866 85.02C81.3866 84.5888 81.5144 84.1674 81.754 83.8089C81.9935 83.4504 82.334 83.1709 82.7323 83.0059C83.1307 82.8409 83.569 82.7978 83.9919 82.8819C84.4148 82.966 84.8032 83.1736 85.1081 83.4785C85.413 83.7834 85.6206 84.1718 85.7047 84.5947C85.7888 85.0176 85.7456 85.4559 85.5806 85.8542C85.4156 86.2526 85.1362 86.5931 84.7777 86.8326C84.4192 87.0721 83.9977 87.2 83.5666 87.2C82.9884 87.2 82.4339 86.9703 82.0251 86.5615C81.6163 86.1527 81.3866 85.5982 81.3866 85.02ZM66.8532 85.02C66.8532 84.5888 66.9811 84.1674 67.2206 83.8089C67.4602 83.4504 67.8007 83.1709 68.199 83.0059C68.5973 82.8409 69.0357 82.7978 69.4585 82.8819C69.8814 82.966 70.2699 83.1736 70.5747 83.4785C70.8796 83.7834 71.0872 84.1718 71.1714 84.5947C71.2555 85.0176 71.2123 85.4559 71.0473 85.8542C70.8823 86.2526 70.6029 86.5931 70.2444 86.8326C69.8859 87.0721 69.4644 87.2 69.0332 87.2C68.4551 87.2 67.9006 86.9703 67.4918 86.5615C67.0829 86.1527 66.8532 85.5982 66.8532 85.02ZM52.3199 85.02C52.3199 84.5888 52.4478 84.1674 52.6873 83.8089C52.9268 83.4504 53.2673 83.1709 53.6657 83.0059C54.064 82.8409 54.5023 82.7978 54.9252 82.8819C55.3481 82.966 55.7365 83.1736 56.0414 83.4785C56.3463 83.7834 56.5539 84.1718 56.638 84.5947C56.7221 85.0176 56.679 85.4559 56.514 85.8542C56.349 86.2526 56.0696 86.5931 55.7111 86.8326C55.3526 87.0721 54.9311 87.2 54.4999 87.2C53.9217 87.2 53.3672 86.9703 52.9584 86.5615C52.5496 86.1527 52.3199 85.5982 52.3199 85.02V85.02ZM37.7866 85.02C37.7866 84.5888 37.9144 84.1674 38.154 83.8089C38.3935 83.4504 38.734 83.1709 39.1323 83.0059C39.5307 82.8409 39.969 82.7978 40.3919 82.8819C40.8147 82.966 41.2032 83.1736 41.5081 83.4785C41.8129 83.7834 42.0206 84.1718 42.1047 84.5947C42.1888 85.0176 42.1456 85.4559 41.9806 85.8542C41.8156 86.2526 41.5362 86.5931 41.1777 86.8326C40.8192 87.0721 40.3977 87.2 39.9666 87.2C39.3884 87.2 38.8339 86.9703 38.4251 86.5615C38.0163 86.1527 37.7866 85.5982 37.7866 85.02ZM23.2532 85.02C23.2532 84.5888 23.3811 84.1674 23.6206 83.8089C23.8602 83.4504 24.2006 83.1709 24.599 83.0059C24.9973 82.8409 25.4357 82.7978 25.8585 82.8819C26.2814 82.966 26.6699 83.1736 26.9747 83.4785C27.2796 83.7834 27.4872 84.1718 27.5714 84.5947C27.6555 85.0176 27.6123 85.4559 27.4473 85.8542C27.2823 86.2526 27.0029 86.5931 26.6444 86.8326C26.2859 87.0721 25.8644 87.2 25.4332 87.2C24.8551 87.2 24.3006 86.9703 23.8917 86.5615C23.4829 86.1527 23.2532 85.5982 23.2532 85.02ZM88.6532 77.7533C88.6532 77.3222 88.7811 76.9007 89.0206 76.5422C89.2602 76.1837 89.6007 75.9043 89.999 75.7393C90.3973 75.5743 90.8357 75.5311 91.2585 75.6152C91.6814 75.6993 92.0699 75.907 92.3747 76.2118C92.6796 76.5167 92.8872 76.9052 92.9714 77.328C93.0555 77.7509 93.0123 78.1892 92.8473 78.5876C92.6823 78.9859 92.4029 79.3264 92.0444 79.5659C91.6859 79.8055 91.2644 79.9333 90.8332 79.9333C90.2551 79.9333 89.7006 79.7037 89.2918 79.2948C88.8829 78.886 88.6532 78.3315 88.6532 77.7533V77.7533ZM74.1199 77.7533C74.1199 77.3222 74.2478 76.9007 74.4873 76.5422C74.7269 76.1837 75.0673 75.9043 75.4657 75.7393C75.864 75.5743 76.3023 75.5311 76.7252 75.6152C77.1481 75.6993 77.5365 75.907 77.8414 76.2118C78.1463 76.5167 78.3539 76.9052 78.438 77.328C78.5221 77.7509 78.479 78.1892 78.314 78.5876C78.149 78.9859 77.8696 79.3264 77.5111 79.5659C77.1526 79.8055 76.7311 79.9333 76.2999 79.9333C75.7217 79.9333 75.1672 79.7037 74.7584 79.2948C74.3496 78.886 74.1199 78.3315 74.1199 77.7533V77.7533ZM30.5199 77.7533C30.5199 77.3222 30.6478 76.9007 30.8873 76.5422C31.1268 76.1837 31.4673 75.9043 31.8657 75.7393C32.264 75.5743 32.7023 75.5311 33.1252 75.6152C33.5481 75.6993 33.9365 75.907 34.2414 76.2118C34.5463 76.5167 34.7539 76.9052 34.838 77.328C34.9221 77.7509 34.879 78.1892 34.714 78.5876C34.549 78.9859 34.2695 79.3264 33.9111 79.5659C33.5526 79.8055 33.1311 79.9333 32.6999 79.9333C32.1217 79.9333 31.5672 79.7037 31.1584 79.2948C30.7496 78.886 30.5199 78.3315 30.5199 77.7533V77.7533ZM15.9866 77.7533C15.9866 77.3222 16.1144 76.9007 16.354 76.5422C16.5935 76.1837 16.934 75.9043 17.3323 75.7393C17.7307 75.5743 18.169 75.5311 18.5919 75.6152C19.0147 75.6993 19.4032 75.907 19.7081 76.2118C20.0129 76.5167 20.2206 76.9052 20.3047 77.328C20.3888 77.7509 20.3456 78.1892 20.1806 78.5876C20.0156 78.9859 19.7362 79.3264 19.3777 79.5659C19.0192 79.8055 18.5977 79.9333 18.1666 79.9333C17.5884 79.9333 17.0339 79.7037 16.6251 79.2948C16.2163 78.886 15.9866 78.3315 15.9866 77.7533V77.7533Z" fill="#FFA789"/>
</g>
</g>
<defs>
<linearGradient id="paint0_linear_118_64" x1="54.5" y1="0" x2="54.5" y2="109" gradientUnits="userSpaceOnUse">
<stop stop-color="#1D0024"/>
<stop offset="1" stop-color="#100014"/>
</linearGradient>
<linearGradient id="paint1_linear_118_64" x1="56.9925" y1="28.7033" x2="56.9925" y2="86.5237" gradientUnits="userSpaceOnUse">
<stop stop-color="#E6864E"/>
<stop offset="1" stop-color="#EB965E"/>
</linearGradient>
<linearGradient id="paint2_linear_118_64" x1="54.5" y1="74.12" x2="54.5" y2="110.453" gradientUnits="userSpaceOnUse">
<stop stop-color="#FECBB5"/>
<stop offset="1" stop-color="#FED4C4"/>
</linearGradient>
<linearGradient id="paint3_linear_118_64" x1="54.5" y1="74.12" x2="54.5" y2="110.453" gradientUnits="userSpaceOnUse">
<stop stop-color="#FECBB5"/>
<stop offset="1" stop-color="#FED4C4"/>
</linearGradient>
<clipPath id="clip0_118_64">
<rect width="109" height="109" rx="54.5" fill="white"/>
</clipPath>
</defs>
</svg>
